<?xml version="1.0" encoding="utf-8"?>
<!-- Generator: Adobe Illustrator 21.0.0, SVG Export Plug-In . SVG Version: 6.00 Build 0)  -->
<svg version="1.1" id="Layer_1" xmlns="http://www.w3.org/2000/svg" xmlns:xlink="http://www.w3.org/1999/xlink" x="0px" y="0px"
	 viewBox="0 0 512 512" style="enable-background:new 0 0 512 512;" xml:space="preserve">
<style type="text/css">
	.st0{fill:#FFFFFF;}
	.st1{fill:none;stroke:#9E9E9E;stroke-miterlimit:10;}
</style>
<path class="st0" d="M416.1,13H91.4C49.2,13,12,43.7,12,85.9v324.7c0,42.2,37.2,79.9,79.4,79.9h201c-0.4-62.6,0.1-132.3-0.2-192.8
	c-12.8-0.1-25.7-0.8-38.5-1c0-21.4,0-43.2,0-64.6c12.8-0.2,25.6-0.2,38.5-0.3c0.4-20.8-0.4-41.8,0.4-62.5
	c1.3-16.5,7.6-33.1,19.9-44.5c14.9-14.2,36.1-19,56.1-19.6c21.1-0.2,42.3-0.1,63.4-0.1c0.1,22.3,0.1,44.6,0,66.9
	c-13.7,0-27.3,0-41,0c-8.7-0.5-17.6,6-19.1,14.6c-0.2,14.9-0.1,29.9-0.1,44.8c20,0.1,40.1,0,60.1,0.1c-1.5,21.6-4.2,43.1-7.3,64.5
	c-17.7,0.2-35.4,1.8-53.1,1.9c-0.1,60.5,0,130.3-0.1,192.8h44.7c42.2,0,73.4-37.8,73.4-79.9V85.9C489.5,43.7,458.3,13,416.1,13z"/>
<path class="st1" d="M412.7,490.7H89c-42.4,0-77-34.7-77-77V90c0-42.4,34.7-77,77-77h323.6c42.4,0,77,34.7,77,77v323.6
	C489.7,456,455,490.7,412.7,490.7z"/>
<path class="st1" d="M409.9,490.5H91.6c-43.8,0-79.6-35.8-79.6-79.6V92.6C12,48.8,47.8,13,91.6,13h318.2c43.8,0,79.6,35.8,79.6,79.6
	v318.2C489.5,454.7,453.7,490.5,409.9,490.5z"/>
</svg>
